# xmcd
#
# Track frame offsets:
#	150
#	18099
#	31745
#	47770
#	67361
#	83653
#	101130
#	112377
#	127806
#	144690
#	170669
#
# Disc length: 2500 seconds
#
# Revision: 1
# Processed by: cddbd v1.5.1PL2 Copyright (c) Steve Scherf et al.
# Submitted via: audiograbber 1.83.01
#
DISCID=9909c20b
DTITLE=Bluesgangsters - 3rd Stroke
DYEAR=2002
DGENRE=Blues
TTITLE0=Set My Heart On Fire
TTITLE1=Sometimes
TTITLE2=Trouble with the kids
TTITLE3=Unknown Highway
TTITLE4=So Many Black Nites
TTITLE5=I Want You
TTITLE6=Wild About You
TTITLE7=One Day
TTITLE8=That Aint No Way To Live
TTITLE9=Call Me
TTITLE10=Jump With The Blues
EXTD=
EXTT0=
EXTT1=
EXTT2=
EXTT3=
EXTT4=
EXTT5=
EXTT6=
EXTT7=
EXTT8=
EXTT9=
EXTT10=
PLAYORDER=
